<svg width="28" height="28" viewBox="0 0 28 28" fill="none" xmlns="http://www.w3.org/2000/svg">
<path d="M15.4 25.1132C18.2242 24.7538 20.8056 23.3326 22.6195 21.1383C24.4335 18.944 25.3438 16.1413 25.1655 13.3C24.9873 10.4586 23.7337 7.79168 21.6598 5.84133C19.5858 3.89098 16.847 2.80353 14 2.8C11.1495 2.79788 8.40553 3.88267 6.32707 5.83335C4.24862 7.78402 2.99214 10.4538 2.81364 13.2987C2.63514 16.1435 3.54807 18.9494 5.3664 21.1446C7.18473 23.3397 9.77163 24.759 12.6 25.1132V16.8H9.8V14H12.6V11.6844C12.6 9.8126 12.796 9.1336 13.16 8.449C13.5186 7.77166 14.0727 7.21796 14.7504 6.86C15.2852 6.573 15.9502 6.4008 17.1122 6.3266C17.5728 6.2972 18.1692 6.3336 18.9014 6.4386V9.0986H18.2C16.9162 9.0986 16.3856 9.1588 16.0692 9.3282C15.8804 9.4253 15.7267 9.57901 15.6296 9.7678C15.4616 10.0842 15.4 10.3978 15.4 11.683V14H18.9L18.2 16.8H15.4V25.1132ZM14 28C6.2678 28 0 21.7322 0 14C0 6.2678 6.2678 0 14 0C21.7322 0 28 6.2678 28 14C28 21.7322 21.7322 28 14 28Z" fill="#F1F1F1"/>
</svg>
